# xmcd
#
# Track frame offsets: 
#        150
#        22915
#        45543
#        66627
#        86745
#        103184
#        126210
#        139261
#        159686
#        188036
#        211937
#
# Disc length: 3035 seconds
#
# Revision: 0
# Processed by: cddbd v1.5.2PL0 Copyright (c) Steve Scherf et al.
# Submitted via: ExactAudioCopy v0.99pb5
#
DISCID=9e0bd90b
DTITLE=Gillian Welch and David Rawlings - House Concert at Bill and Cl
DTITLE=aire Bost's, Disk 2
DYEAR=1997
DGENRE=Alternative
TTITLE0=Tear My Stillhouse Down
TTITLE1=Paper Wings
TTITLE2=East Virginia Blues
TTITLE3=By the Mark
TTITLE4=Beautiful Garden
TTITLE5=White Freightliner Blues
TTITLE6=Saginaw Way
TTITLE7=Jesus on the Mainline
TTITLE8=Only One and Only
TTITLE9=Albuquerque
TTITLE10=Red Clay Hole
EXTD=
EXTT0=
EXTT1=
EXTT2=
EXTT3=
EXTT4=
EXTT5=
EXTT6=
EXTT7=
EXTT8=
EXTT9=
EXTT10=
PLAYORDER=
